<svg width="256" height="256" viewBox="0 0 256 256" fill="none" xmlns="http://www.w3.org/2000/svg">
<circle cx="130" cy="130" r="120" fill="#B3AE0C"/>
<path d="M190.032 147.611V123.463C190.032 121.064 188.096 119.118 185.706 119.118H134.825V109.377H153.208C155.599 109.377 157.531 107.431 157.531 105.032V72.3453C157.531 69.946 155.599 68 153.208 68H107.389C105.002 68 103.066 69.946 103.066 72.3453V105.032C103.066 107.431 105.002 109.377 107.389 109.377H126.178V119.118H75.2909C72.904 119.118 70.9645 121.064 70.9645 123.463V147.611C60.7441 149.642 53 158.717 53 169.589C53 181.948 63.0002 191.998 75.284 191.998C87.5798 191.998 97.5851 181.946 97.5851 169.589C97.5851 158.72 89.8445 149.646 79.6138 147.615V127.812H126.18V147.582C115.854 149.535 108.012 158.649 108.012 169.59C108.012 181.95 118.009 192 130.3 192C142.595 192 152.594 181.948 152.594 169.59C152.594 158.793 144.955 149.754 134.827 147.649V127.812H181.386V147.613C171.155 149.644 163.415 158.718 163.415 169.59C163.415 181.95 173.415 192 185.706 192C198.002 192 208 181.948 208 169.59C207.998 158.72 200.261 149.645 190.032 147.611ZM111.715 76.6906H148.884V100.685H111.715V76.6906ZM88.9359 169.59C88.9359 177.155 82.8146 183.308 75.2822 183.308C67.7671 183.308 61.6458 177.155 61.6458 169.59C61.6458 162.029 67.7671 155.876 75.2822 155.876C82.8164 155.876 88.9359 162.028 88.9359 169.59ZM143.945 169.59C143.945 177.155 137.823 183.308 130.298 183.308C122.776 183.308 116.654 177.155 116.654 169.59C116.654 162.029 122.776 155.876 130.298 155.876C137.823 155.876 143.945 162.028 143.945 169.59ZM185.704 183.306C178.182 183.306 172.061 177.153 172.061 169.589C172.061 162.028 178.182 155.875 185.704 155.875C193.229 155.875 199.351 162.028 199.351 169.589C199.349 177.155 193.229 183.306 185.704 183.306Z" fill="#062333"/>
</svg>
